<?xml version="1.0" encoding="utf-8"?>
<!-- Generator: Adobe Illustrator 16.0.0, SVG Export Plug-In . SVG Version: 6.00 Build 0)  -->
<!DOCTYPE svg PUBLIC "-//W3C//DTD SVG 1.1//EN" "http://www.w3.org/Graphics/SVG/1.1/DTD/svg11.dtd">
<svg version="1.1" id="圖層_1" xmlns="http://www.w3.org/2000/svg" xmlns:xlink="http://www.w3.org/1999/xlink" x="0px" y="0px"
	 width="322px" height="602px" viewBox="0 0 322 602" enable-background="new 0 0 322 602" xml:space="preserve">
<path id="i" fill="#2B6AB4" stroke="#000000" stroke-miterlimit="10" d="M198,155.5c0,18.778-15.223,34-34,34l0,0
	c-18.778,0-34-15.222-34-34l0,0c0-18.778,15.222-34,34-34l0,0C182.777,121.5,198,136.722,198,155.5L198,155.5z"/>
<path id="h" fill="#2B6AB4" stroke="#000000" stroke-miterlimit="10" d="M193.5,446.5c0,18.777-15.223,34-34,34l0,0
	c-18.778,0-34-15.223-34-34l0,0c0-18.777,15.222-34,34-34l0,0C178.277,412.5,193.5,427.723,193.5,446.5L193.5,446.5z"/>
<rect id="g" x="30" y="576" fill="#2B6AB4" stroke="#000000" stroke-miterlimit="10" width="259" height="26"/>
<rect id="f" x="296" y="317" fill="#2B6AB4" stroke="#000000" stroke-miterlimit="10" width="26" height="259"/>
<rect id="e" y="317" fill="#2B6AB4" stroke="#000000" stroke-miterlimit="10" width="26" height="259"/>
<rect id="d" x="30" y="291" fill="#2B6AB4" stroke="#000000" stroke-miterlimit="10" width="259" height="26"/>
<rect id="c" x="296" y="32" fill="#2B6AB4" stroke="#000000" stroke-miterlimit="10" width="26" height="259"/>
<rect id="b" y="26" fill="#2B6AB4" stroke="#000000" stroke-miterlimit="10" width="26" height="259"/>
<rect id="a" x="37" fill="#2B6AB4" stroke="#000000" stroke-miterlimit="10" width="259" height="26"/>
</svg>
